# 3ds Max Wavefront OBJ Exporter v0.97b - (c)2007 guruware
# File Created: 12.05.2016 15:01:55

#
# object Sphere01
#

v  -5.385265350 77.667640686 5.385265350
v  -22.919683456 56.098514557 -39.161117554
v  -50.407718658 59.305591583 -39.343578339
v  -65.153488159 51.018466949 -22.207536697
v  -51.871376038 58.847610474 4.776915073
v  -37.327354431 75.165306091 33.038177490
v  -11.256882668 70.223731995 47.642768860
v  16.137212753 64.277091980 66.643188477
v  36.157470703 60.915996552 54.645442963
v  44.373275757 57.198390961 29.947942734
v  23.293994904 57.815452576 3.456690788
v  2.161159277 53.603565216 -19.215461731
v  -8.177272797 30.242830276 -65.230239868
v  -66.383453369 38.502975464 -50.181037903
v  -95.537788391 16.448717117 -13.950559616
v  -95.612800598 36.565284729 31.255573273
v  -84.977493286 50.434818268 74.055351257
v  -42.512882233 30.659074783 97.874870300
v  3.577875614 14.194450378 99.894294739
v  38.661239624 16.008577347 74.837677002
v  66.319496155 19.152755737 19.886209488
v  53.275722504 22.496387482 -19.122856140
v  22.064054489 13.115282059 -44.456745148
v  -18.358003616 -18.137784958 -76.394424438
v  -67.117622375 -10.878940582 -61.457809448
v  -95.344520569 -32.356655121 -36.591293335
v  -104.195251465 -11.213513374 11.236315727
v  -73.954147339 -0.773329139 65.157356262
v  -24.794479370 -21.169345856 106.354461670
v  25.359449387 -36.098415375 101.883827209
v  60.584075928 -37.261753082 79.368377686
v  72.012336731 -30.893104553 31.060895920
v  66.587776184 -20.816780090 -18.494085312
v  29.127050400 -35.487548828 -54.835559845
v  -25.153804779 -67.471817017 -60.158134460
v  -57.294704437 -60.559772491 -60.647594452
v  -82.104133606 -81.454444885 -37.745052338
v  -70.782173157 -66.858894348 -1.843096972
v  -43.141887665 -50.268440247 34.311664581
v  -8.865377426 -61.860252380 63.796207428
v  29.428199768 -78.261604309 81.191696167
v  59.580860138 -78.338867188 64.138977051
v  63.756011963 -79.293464661 34.306690216
v  41.534576416 -75.306678772 -6.425732613
v  16.190118790 -87.251991272 -40.402439117
v  -20.189367294 -102.182548523 20.189367294
# 46 vertices

vn 0.153293177 0.959905744 -0.234695747
vn 0.198115692 0.770737588 -0.605568826
vn -0.291455060 0.804936290 -0.516847491
vn -0.624534130 0.757520437 -0.190051988
vn -0.443562955 0.886777520 -0.129912928
vn -0.260224372 0.960684180 0.096793830
vn -0.025747091 0.904710948 0.425247103
vn 0.139673486 0.762364864 0.631894708
vn 0.613814652 0.684686482 0.392983228
vn 0.694849372 0.716278672 -0.064257689
vn 0.490786731 0.724377513 -0.484154373
vn 0.507604897 0.673823357 -0.536934972
vn 0.294080436 0.461944014 -0.836734295
vn -0.542054117 0.501763821 -0.674099565
vn -0.889744043 0.342786789 -0.301417738
vn -0.897314906 0.434365392 0.078437805
vn -0.684397817 0.504669011 0.526221037
vn -0.154555976 0.415989786 0.896138847
vn 0.219357029 0.322219998 0.920899928
vn 0.703874171 0.318868458 0.634731352
vn 0.944332778 0.322715908 0.063952185
vn 0.677788556 0.484674722 -0.552895069
vn 0.554744661 0.393293649 -0.733197272
vn 0.095783927 0.002941746 -0.995397747
vn -0.491885632 0.082710452 -0.866722226
vn -0.904538453 -0.154647887 -0.397358835
vn -0.951255262 -0.226112306 0.209729552
vn -0.743145585 -0.411033124 0.528002143
vn -0.324723005 -0.294761747 0.898704827
vn 0.287751198 -0.121413343 0.949977875
vn 0.806352317 0.037067067 0.590272665
vn 0.998403907 -0.028626611 0.048682537
vn 0.892965138 -0.072670169 -0.444220841
vn 0.555060923 -0.111690171 -0.824276984
vn -0.016360585 -0.642474949 -0.766131878
vn -0.285294205 -0.474823266 -0.832556248
vn -0.625284255 -0.719278634 -0.302750170
vn -0.712391436 -0.505884826 0.486393660
vn -0.614160955 -0.552664995 0.563353837
vn -0.578804731 -0.612545550 0.538305521
vn 0.045261495 -0.723337471 0.689009547
vn 0.680149257 -0.618540347 0.393452168
vn 0.770334601 -0.625473380 -0.123965546
vn 0.665967584 -0.683942437 -0.297841728
vn 0.335481972 -0.776324987 -0.533639550
vn -0.260349274 -0.939948380 0.220715046
# 46 vertex normals

vt 0.000000000 1.000000000 0.000000000
vt 0.000000000 0.818181813 0.000000000
vt 0.090909094 0.818181813 0.000000000
vt 0.090909094 1.000000000 0.000000000
vt 0.181818187 0.818181813 0.000000000
vt 0.181818187 1.000000000 0.000000000
vt 0.272727281 0.818181813 0.000000000
vt 0.272727281 1.000000000 0.000000000
vt 0.363636374 0.818181813 0.000000000
vt 0.363636374 1.000000000 0.000000000
vt 0.454545468 0.818181813 0.000000000
vt 0.454545468 1.000000000 0.000000000
vt 0.545454562 0.818181813 0.000000000
vt 0.545454562 1.000000000 0.000000000
vt 0.636363626 0.818181813 0.000000000
vt 0.636363626 1.000000000 0.000000000
vt 0.727272749 0.818181813 0.000000000
vt 0.727272749 1.000000000 0.000000000
vt 0.818181813 0.818181813 0.000000000
vt 0.818181813 1.000000000 0.000000000
vt 0.909090877 0.818181813 0.000000000
vt 0.909090877 1.000000000 0.000000000
vt 0.999999940 0.818181813 0.000000000
vt 0.000000000 0.636363626 0.000000000
vt 0.090909094 0.636363626 0.000000000
vt 0.181818187 0.636363626 0.000000000
vt 0.272727281 0.636363626 0.000000000
vt 0.363636374 0.636363626 0.000000000
vt 0.454545468 0.636363626 0.000000000
vt 0.545454562 0.636363626 0.000000000
vt 0.636363626 0.636363626 0.000000000
vt 0.727272749 0.636363626 0.000000000
vt 0.818181813 0.636363626 0.000000000
vt 0.909090877 0.636363626 0.000000000
vt 0.999999940 0.636363626 0.000000000
vt 0.000000000 0.454545438 0.000000000
vt 0.090909094 0.454545438 0.000000000
vt 0.181818187 0.454545438 0.000000000
vt 0.272727281 0.454545438 0.000000000
vt 0.363636374 0.454545438 0.000000000
vt 0.454545468 0.454545438 0.000000000
vt 0.545454562 0.454545438 0.000000000
vt 0.636363626 0.454545438 0.000000000
vt 0.727272749 0.454545438 0.000000000
vt 0.818181813 0.454545438 0.000000000
vt 0.909090877 0.454545438 0.000000000
vt 0.999999940 0.454545438 0.000000000
vt 0.000000000 0.272727251 0.000000000
vt 0.090909094 0.272727251 0.000000000
vt 0.181818187 0.272727251 0.000000000
vt 0.272727281 0.272727251 0.000000000
vt 0.363636374 0.272727251 0.000000000
vt 0.454545468 0.272727251 0.000000000
vt 0.545454562 0.272727251 0.000000000
vt 0.636363626 0.272727251 0.000000000
vt 0.727272749 0.272727251 0.000000000
vt 0.818181813 0.272727251 0.000000000
vt 0.909090877 0.272727251 0.000000000
vt 0.999999940 0.272727251 0.000000000
vt 0.000000000 0.090909064 0.000000000
vt 0.090909094 0.090909064 0.000000000
vt 0.181818187 0.090909064 0.000000000
vt 0.272727281 0.090909064 0.000000000
vt 0.363636374 0.090909064 0.000000000
vt 0.454545468 0.090909064 0.000000000
vt 0.545454562 0.090909064 0.000000000
vt 0.636363626 0.090909064 0.000000000
vt 0.727272749 0.090909064 0.000000000
vt 0.818181813 0.090909064 0.000000000
vt 0.909090877 0.090909064 0.000000000
# 70 texture coords

g Sphere01
f 1/1/1 2/2/2 3/3/3 
f 1/4/1 3/3/3 4/5/4 
f 1/6/1 4/5/4 5/7/5 
f 1/8/1 5/7/5 6/9/6 
f 1/10/1 6/9/6 7/11/7 
f 1/12/1 7/11/7 8/13/8 
f 1/14/1 8/13/8 9/15/9 
f 1/16/1 9/15/9 10/17/10 
f 1/18/1 10/17/10 11/19/11 
f 1/20/1 11/19/11 12/21/12 
f 1/22/1 12/21/12 2/23/2 
f 2/2/2 13/24/13 14/25/14 
f 2/2/2 14/25/14 3/3/3 
f 3/3/3 14/25/14 15/26/15 
f 3/3/3 15/26/15 4/5/4 
f 4/5/4 15/26/15 16/27/16 
f 4/5/4 16/27/16 5/7/5 
f 5/7/5 16/27/16 17/28/17 
f 5/7/5 17/28/17 6/9/6 
f 6/9/6 17/28/17 18/29/18 
f 6/9/6 18/29/18 7/11/7 
f 7/11/7 18/29/18 19/30/19 
f 7/11/7 19/30/19 8/13/8 
f 8/13/8 19/30/19 20/31/20 
f 8/13/8 20/31/20 9/15/9 
f 9/15/9 20/31/20 21/32/21 
f 9/15/9 21/32/21 10/17/10 
f 10/17/10 21/32/21 22/33/22 
f 10/17/10 22/33/22 11/19/11 
f 11/19/11 22/33/22 23/34/23 
f 11/19/11 23/34/23 12/21/12 
f 12/21/12 23/34/23 13/35/13 
f 12/21/12 13/35/13 2/23/2 
f 13/24/13 24/36/24 25/37/25 
f 13/24/13 25/37/25 14/25/14 
f 14/25/14 25/37/25 26/38/26 
f 14/25/14 26/38/26 15/26/15 
f 15/26/15 26/38/26 27/39/27 
f 15/26/15 27/39/27 16/27/16 
f 16/27/16 27/39/27 28/40/28 
f 16/27/16 28/40/28 17/28/17 
f 17/28/17 28/40/28 29/41/29 
f 17/28/17 29/41/29 18/29/18 
f 18/29/18 29/41/29 30/42/30 
f 18/29/18 30/42/30 19/30/19 
f 19/30/19 30/42/30 31/43/31 
f 19/30/19 31/43/31 20/31/20 
f 20/31/20 31/43/31 32/44/32 
f 20/31/20 32/44/32 21/32/21 
f 21/32/21 32/44/32 33/45/33 
f 21/32/21 33/45/33 22/33/22 
f 22/33/22 33/45/33 34/46/34 
f 22/33/22 34/46/34 23/34/23 
f 23/34/23 34/46/34 24/47/24 
f 23/34/23 24/47/24 13/35/13 
f 24/36/24 35/48/35 36/49/36 
f 24/36/24 36/49/36 25/37/25 
f 25/37/25 36/49/36 37/50/37 
f 25/37/25 37/50/37 26/38/26 
f 26/38/26 37/50/37 38/51/38 
f 26/38/26 38/51/38 27/39/27 
f 27/39/27 38/51/38 39/52/39 
f 27/39/27 39/52/39 28/40/28 
f 28/40/28 39/52/39 40/53/40 
f 28/40/28 40/53/40 29/41/29 
f 29/41/29 40/53/40 41/54/41 
f 29/41/29 41/54/41 30/42/30 
f 30/42/30 41/54/41 42/55/42 
f 30/42/30 42/55/42 31/43/31 
f 31/43/31 42/55/42 43/56/43 
f 31/43/31 43/56/43 32/44/32 
f 32/44/32 43/56/43 44/57/44 
f 32/44/32 44/57/44 33/45/33 
f 33/45/33 44/57/44 45/58/45 
f 33/45/33 45/58/45 34/46/34 
f 34/46/34 45/58/45 35/59/35 
f 34/46/34 35/59/35 24/47/24 
f 46/60/46 36/49/36 35/48/35 
f 46/61/46 37/50/37 36/49/36 
f 46/62/46 38/51/38 37/50/37 
f 46/63/46 39/52/39 38/51/38 
f 46/64/46 40/53/40 39/52/39 
f 46/65/46 41/54/41 40/53/40 
f 46/66/46 42/55/42 41/54/41 
f 46/67/46 43/56/43 42/55/42 
f 46/68/46 44/57/44 43/56/43 
f 46/69/46 45/58/45 44/57/44 
f 46/70/46 35/59/35 45/58/45 
# 88 faces

