<?xml version="1.0" encoding="utf-8"?>
<!-- Generator: Adobe Illustrator 17.1.0, SVG Export Plug-In . SVG Version: 6.00 Build 0)  -->
<!DOCTYPE svg PUBLIC "-//W3C//DTD SVG 1.1//EN" "http://www.w3.org/Graphics/SVG/1.1/DTD/svg11.dtd">
<svg version="1.1" id="Layer_1" xmlns="http://www.w3.org/2000/svg" xmlns:xlink="http://www.w3.org/1999/xlink" x="0px" y="0px"
	 viewBox="0 0 115.3 100.2" enable-background="new 0 0 115.3 100.2" xml:space="preserve">
<path fill="#A9A8A8" d="M101.7,0H13.6C6.1,0,0,6,0,13.4v46.8c0,7.4,5.6,14.6,13.1,14.6H21v20.6c0,0.9-0.3,3.2,0.4,3.8
	c1.3,1.3,3.5,1.3,4.8,0L55,74.8h47.2c7.5,0,13.1-7.3,13.1-14.6V13.4C115.3,6,109.2,0,101.7,0z M23.6,20.6h55c1.9,0,2.8,0.9,2.8,2.8
	c0,1.8-0.9,5-2.8,5h-55c-1.9,0-3.2-3.1-3.2-5C20.3,21.5,21.7,20.6,23.6,20.6z M52.4,54.1H26.2c-6.5,0-5.2-3.3-5.2-5.2
	c0-1.9,0.8-2.6,5.2-2.6h26.2c4.1-0.1,5.2,0.7,5.2,2.6C57.7,50.8,58.9,54.1,52.4,54.1z M91.7,41.3H23.6c-1.9,0-3.2-2.7-3.2-4.5
	c0-1.8,1.5-3.3,3.4-3.3h67.8c1.9,0,3.4,1.5,3.4,3.3C95,38.6,93.6,41.3,91.7,41.3z"/>
</svg>
