# 3ds Max Wavefront OBJ Exporter v0.97b - (c)2007 guruware
# File Created: 12.05.2016 15:01:41

#
# object Sphere01
#

v  1.745336890 62.458976746 -1.745336890
v  -0.779846013 49.083232880 -36.608722687
v  -17.319761276 48.155742645 -33.717132568
v  -28.203920364 50.313091278 -19.261837006
v  -26.113677979 42.263916016 -0.515394330
v  -16.345451355 44.891075134 13.676106453
v  -3.419521332 52.692905426 25.230480194
v  14.348085403 56.835834503 28.754011154
v  31.316259384 56.585376740 21.914445877
v  36.309886932 47.341423035 5.240718365
v  29.162458420 49.720088959 -12.943009377
v  16.776020050 53.248908997 -26.202924728
v  -9.393570900 28.668012619 -52.665893555
v  -35.406280518 28.681560516 -46.394699097
v  -46.811447144 23.053010941 -20.398395538
v  -54.106731415 26.851701736 9.266420364
v  -37.036785126 27.383148193 36.517345428
v  -16.516597748 36.356163025 52.901786804
v  13.377524376 43.880516052 46.880065918
v  43.154373169 32.169792175 37.578189850
v  50.921352386 20.111562729 16.795383453
v  49.707889557 16.943470001 -13.956885338
v  21.960117340 22.339733124 -42.619098663
v  -7.978666306 -6.116297722 -60.117763519
v  -32.594497681 -3.134577513 -43.038127899
v  -51.777214050 -9.727025986 -25.971599579
v  -55.292934418 -5.727781773 5.904656410
v  -45.680576324 -7.681190491 38.222488403
v  -13.827363014 5.717048168 55.634468079
v  18.702100754 11.523578644 53.408329010
v  41.579914093 2.124222040 39.224056244
v  58.993991852 -15.850299835 16.037078857
v  53.250869751 -17.280426025 -19.277175903
v  29.829080582 -8.906346321 -46.589450836
v  10.361424446 -35.958896637 -52.131050110
v  -13.187326431 -36.551494598 -42.309551239
v  -25.486740112 -35.521694183 -22.774307251
v  -35.186260223 -38.526638031 5.747914314
v  -29.216104507 -39.109508514 24.084033966
v  -10.120987892 -28.177703857 34.877201080
v  14.715943336 -23.156515121 29.764614105
v  37.409107208 -30.487480164 18.623924255
v  52.074203491 -39.143184662 -4.185157299
v  54.704406738 -36.594684601 -28.598968506
v  34.474384308 -36.999385834 -49.347133636
v  12.244428635 -54.190513611 -12.244428635
# 46 vertices

vn -0.115346923 0.993248105 -0.012374116
vn 0.078841023 0.749595940 -0.657183290
vn -0.322173387 0.791732430 -0.519002736
vn -0.567510962 0.804872453 -0.173526496
vn -0.455596328 0.831746221 0.317222476
vn -0.559853911 0.805859447 0.192753777
vn -0.420616478 0.854878604 0.303750217
vn 0.020771882 0.888823926 0.457777709
vn 0.527637541 0.821677625 0.215509415
vn 0.738589406 0.657743394 -0.147848532
vn 0.630876780 0.716201961 -0.298410863
vn 0.402204007 0.765566111 -0.502135694
vn -0.008729420 0.371342093 -0.928454995
vn -0.597292840 0.377521455 -0.707614779
vn -0.887399375 0.362518758 -0.284784764
vn -0.866793871 0.480446249 0.133565336
vn -0.666733682 0.516385615 0.537412167
vn -0.365793377 0.520914018 0.771261036
vn 0.192278385 0.597268164 0.778652430
vn 0.708046794 0.342582524 0.617500424
vn 0.949782491 0.309283018 0.047508936
vn 0.887902617 0.304721355 -0.344635636
vn 0.527572930 0.348107368 -0.774911523
vn -0.163962886 -0.049907349 -0.985203207
vn -0.566466033 -0.236771524 -0.789338529
vn -0.853828251 -0.294365734 -0.429331988
vn -0.974174559 -0.216135085 0.065341160
vn -0.712531507 -0.253606349 0.654203713
vn -0.168416291 -0.209859967 0.963117123
vn 0.327771395 -0.118569538 0.937287092
vn 0.552465320 -0.239523828 0.798379779
vn 0.861862361 -0.295601100 0.412083834
vn 0.904698372 0.199014559 -0.376714587
vn 0.549356341 0.163073659 -0.819520831
vn -0.009328105 -0.561651826 -0.827321053
vn -0.469705462 -0.687682271 -0.553597033
vn -0.553477466 -0.755006790 -0.351606756
vn -0.632447004 -0.774577618 0.006339311
vn -0.373706996 -0.787562549 0.489987969
vn 0.085456327 -0.647607505 0.757166803
vn 0.200957507 -0.660059929 0.723834813
vn 0.356056690 -0.675332129 0.645871460
vn 0.635508537 -0.731564701 0.246864066
vn 0.816433549 -0.390593529 -0.425291389
vn 0.429806113 -0.435595512 -0.790900171
vn 0.020040357 -0.998843908 0.043692864
# 46 vertex normals

vt 0.000000000 1.000000000 0.000000000
vt 0.000000000 0.818181813 0.000000000
vt 0.090909094 0.818181813 0.000000000
vt 0.090909094 1.000000000 0.000000000
vt 0.181818187 0.818181813 0.000000000
vt 0.181818187 1.000000000 0.000000000
vt 0.272727281 0.818181813 0.000000000
vt 0.272727281 1.000000000 0.000000000
vt 0.363636374 0.818181813 0.000000000
vt 0.363636374 1.000000000 0.000000000
vt 0.454545468 0.818181813 0.000000000
vt 0.454545468 1.000000000 0.000000000
vt 0.545454562 0.818181813 0.000000000
vt 0.545454562 1.000000000 0.000000000
vt 0.636363626 0.818181813 0.000000000
vt 0.636363626 1.000000000 0.000000000
vt 0.727272749 0.818181813 0.000000000
vt 0.727272749 1.000000000 0.000000000
vt 0.818181813 0.818181813 0.000000000
vt 0.818181813 1.000000000 0.000000000
vt 0.909090877 0.818181813 0.000000000
vt 0.909090877 1.000000000 0.000000000
vt 0.999999940 0.818181813 0.000000000
vt 0.000000000 0.636363626 0.000000000
vt 0.090909094 0.636363626 0.000000000
vt 0.181818187 0.636363626 0.000000000
vt 0.272727281 0.636363626 0.000000000
vt 0.363636374 0.636363626 0.000000000
vt 0.454545468 0.636363626 0.000000000
vt 0.545454562 0.636363626 0.000000000
vt 0.636363626 0.636363626 0.000000000
vt 0.727272749 0.636363626 0.000000000
vt 0.818181813 0.636363626 0.000000000
vt 0.909090877 0.636363626 0.000000000
vt 0.999999940 0.636363626 0.000000000
vt 0.000000000 0.454545438 0.000000000
vt 0.090909094 0.454545438 0.000000000
vt 0.181818187 0.454545438 0.000000000
vt 0.272727281 0.454545438 0.000000000
vt 0.363636374 0.454545438 0.000000000
vt 0.454545468 0.454545438 0.000000000
vt 0.545454562 0.454545438 0.000000000
vt 0.636363626 0.454545438 0.000000000
vt 0.727272749 0.454545438 0.000000000
vt 0.818181813 0.454545438 0.000000000
vt 0.909090877 0.454545438 0.000000000
vt 0.999999940 0.454545438 0.000000000
vt 0.000000000 0.272727251 0.000000000
vt 0.090909094 0.272727251 0.000000000
vt 0.181818187 0.272727251 0.000000000
vt 0.272727281 0.272727251 0.000000000
vt 0.363636374 0.272727251 0.000000000
vt 0.454545468 0.272727251 0.000000000
vt 0.545454562 0.272727251 0.000000000
vt 0.636363626 0.272727251 0.000000000
vt 0.727272749 0.272727251 0.000000000
vt 0.818181813 0.272727251 0.000000000
vt 0.909090877 0.272727251 0.000000000
vt 0.999999940 0.272727251 0.000000000
vt 0.000000000 0.090909064 0.000000000
vt 0.090909094 0.090909064 0.000000000
vt 0.181818187 0.090909064 0.000000000
vt 0.272727281 0.090909064 0.000000000
vt 0.363636374 0.090909064 0.000000000
vt 0.454545468 0.090909064 0.000000000
vt 0.545454562 0.090909064 0.000000000
vt 0.636363626 0.090909064 0.000000000
vt 0.727272749 0.090909064 0.000000000
vt 0.818181813 0.090909064 0.000000000
vt 0.909090877 0.090909064 0.000000000
# 70 texture coords

g Sphere01
f 1/1/1 2/2/2 3/3/3 
f 1/4/1 3/3/3 4/5/4 
f 1/6/1 4/5/4 5/7/5 
f 1/8/1 5/7/5 6/9/6 
f 1/10/1 6/9/6 7/11/7 
f 1/12/1 7/11/7 8/13/8 
f 1/14/1 8/13/8 9/15/9 
f 1/16/1 9/15/9 10/17/10 
f 1/18/1 10/17/10 11/19/11 
f 1/20/1 11/19/11 12/21/12 
f 1/22/1 12/21/12 2/23/2 
f 2/2/2 13/24/13 14/25/14 
f 2/2/2 14/25/14 3/3/3 
f 3/3/3 14/25/14 15/26/15 
f 3/3/3 15/26/15 4/5/4 
f 4/5/4 15/26/15 16/27/16 
f 4/5/4 16/27/16 5/7/5 
f 5/7/5 16/27/16 17/28/17 
f 5/7/5 17/28/17 6/9/6 
f 6/9/6 17/28/17 18/29/18 
f 6/9/6 18/29/18 7/11/7 
f 7/11/7 18/29/18 19/30/19 
f 7/11/7 19/30/19 8/13/8 
f 8/13/8 19/30/19 20/31/20 
f 8/13/8 20/31/20 9/15/9 
f 9/15/9 20/31/20 21/32/21 
f 9/15/9 21/32/21 10/17/10 
f 10/17/10 21/32/21 22/33/22 
f 10/17/10 22/33/22 11/19/11 
f 11/19/11 22/33/22 23/34/23 
f 11/19/11 23/34/23 12/21/12 
f 12/21/12 23/34/23 13/35/13 
f 12/21/12 13/35/13 2/23/2 
f 13/24/13 24/36/24 25/37/25 
f 13/24/13 25/37/25 14/25/14 
f 14/25/14 25/37/25 26/38/26 
f 14/25/14 26/38/26 15/26/15 
f 15/26/15 26/38/26 27/39/27 
f 15/26/15 27/39/27 16/27/16 
f 16/27/16 27/39/27 28/40/28 
f 16/27/16 28/40/28 17/28/17 
f 17/28/17 28/40/28 29/41/29 
f 17/28/17 29/41/29 18/29/18 
f 18/29/18 29/41/29 30/42/30 
f 18/29/18 30/42/30 19/30/19 
f 19/30/19 30/42/30 31/43/31 
f 19/30/19 31/43/31 20/31/20 
f 20/31/20 31/43/31 32/44/32 
f 20/31/20 32/44/32 21/32/21 
f 21/32/21 32/44/32 33/45/33 
f 21/32/21 33/45/33 22/33/22 
f 22/33/22 33/45/33 34/46/34 
f 22/33/22 34/46/34 23/34/23 
f 23/34/23 34/46/34 24/47/24 
f 23/34/23 24/47/24 13/35/13 
f 24/36/24 35/48/35 36/49/36 
f 24/36/24 36/49/36 25/37/25 
f 25/37/25 36/49/36 37/50/37 
f 25/37/25 37/50/37 26/38/26 
f 26/38/26 37/50/37 38/51/38 
f 26/38/26 38/51/38 27/39/27 
f 27/39/27 38/51/38 39/52/39 
f 27/39/27 39/52/39 28/40/28 
f 28/40/28 39/52/39 40/53/40 
f 28/40/28 40/53/40 29/41/29 
f 29/41/29 40/53/40 41/54/41 
f 29/41/29 41/54/41 30/42/30 
f 30/42/30 41/54/41 42/55/42 
f 30/42/30 42/55/42 31/43/31 
f 31/43/31 42/55/42 43/56/43 
f 31/43/31 43/56/43 32/44/32 
f 32/44/32 43/56/43 44/57/44 
f 32/44/32 44/57/44 33/45/33 
f 33/45/33 44/57/44 45/58/45 
f 33/45/33 45/58/45 34/46/34 
f 34/46/34 45/58/45 35/59/35 
f 34/46/34 35/59/35 24/47/24 
f 46/60/46 36/49/36 35/48/35 
f 46/61/46 37/50/37 36/49/36 
f 46/62/46 38/51/38 37/50/37 
f 46/63/46 39/52/39 38/51/38 
f 46/64/46 40/53/40 39/52/39 
f 46/65/46 41/54/41 40/53/40 
f 46/66/46 42/55/42 41/54/41 
f 46/67/46 43/56/43 42/55/42 
f 46/68/46 44/57/44 43/56/43 
f 46/69/46 45/58/45 44/57/44 
f 46/70/46 35/59/35 45/58/45 
# 88 faces

