# 3ds Max Wavefront OBJ Exporter v0.97b - (c)2007 guruware
# File Created: 07.05.2016 14:38:02

#
# object Sphere01
#

v  -2.450865030 19.646354675 -5.629055977
v  -5.995378494 17.677860260 -12.730907440
v  -11.934589386 18.379806519 -9.803379059
v  -14.490453720 20.737709045 -5.613383293
v  -17.444805145 22.489267349 0.772813797
v  -16.339456558 21.705804825 6.697047234
v  -10.372775078 17.505939484 9.771356583
v  -4.043423653 14.081720352 7.345915794
v  0.639064670 14.630230904 4.905290604
v  4.792330265 15.650150299 -0.527988911
v  5.945159912 14.351802826 -6.793318748
v  0.211345226 17.819910049 -12.931457520
v  -12.999869347 14.098667145 -16.687515259
v  -22.759885788 10.926416397 -14.179160118
v  -27.885810852 8.169736862 -5.648697853
v  -27.505191803 10.188819885 5.172728539
v  -23.444160461 14.071123123 13.567657471
v  -15.855249405 13.564525604 18.509731293
v  -5.206070900 9.963054657 20.411949158
v  5.122322559 5.992950439 15.908693314
v  9.908940315 7.358778477 7.602503777
v  6.497253418 5.433192253 -3.177504063
v  -2.324265718 11.251774788 -13.515264511
v  -11.744382858 4.314479351 -17.528995514
v  -22.048622131 -0.322773933 -20.585445404
v  -31.766912460 -3.657103539 -8.295830727
v  -29.862258911 -2.294026375 4.078976631
v  -21.060207367 2.161727905 11.672817230
v  -14.553864479 2.494793892 19.387880325
v  -2.965898991 -1.070196152 25.937988281
v  10.024579048 -6.675037384 16.865550995
v  10.850148201 -4.646715164 6.453707695
v  5.647220612 -6.077149391 -5.361112118
v  0.188516468 0.769320488 -13.284105301
v  -13.691807747 -10.914999008 -12.867803574
v  -20.108633041 -13.062046051 -17.341827393
v  -25.157390594 -12.385238647 -9.865846634
v  -25.496332169 -9.623985291 -1.113013268
v  -15.323282242 -7.912242889 6.021777153
v  -9.094846725 -10.967269897 15.041028976
v  -0.247191757 -13.617197037 18.132369995
v  8.410603523 -15.842987061 14.115219116
v  5.588445187 -15.352714539 7.747877121
v  3.409086227 -15.933647156 -2.448325634
v  -3.130112171 -10.792289734 -9.399974823
v  -4.981157780 -21.907669067 -3.098763466
# 46 vertices

vn 0.279829174 0.960022449 -0.007244947
vn -0.075171202 0.884619474 -0.460214823
vn -0.218784243 0.824183404 -0.522355378
vn -0.304772794 0.841352224 -0.446363062
vn -0.403389215 0.902458787 -0.151146606
vn -0.097939499 0.934319019 0.342718273
vn 0.399256438 0.815599561 0.418797910
vn 0.398181885 0.823612392 0.403873473
vn 0.269647419 0.847892344 0.456474334
vn 0.677777290 0.716084301 0.166856855
vn 0.887890160 0.312402964 -0.337721020
vn 0.482314110 0.573996425 -0.661741018
vn -0.097282961 0.630369246 -0.770175695
vn -0.606380045 0.626820982 -0.489283800
vn -0.848310649 0.502434790 -0.167117640
vn -0.916017354 0.338684648 0.214953184
vn -0.742143154 0.369473279 0.559207499
vn -0.234697044 0.529479086 0.815211177
vn 0.316399932 0.654664576 0.686516821
vn 0.629647970 0.491946489 0.601275384
vn 0.904608250 0.387306333 0.177982241
vn 0.913541079 0.051467516 -0.403477132
vn 0.498531103 -0.005841615 -0.866852105
vn 0.310987711 -0.045475625 -0.949325323
vn -0.330868453 -0.007142267 -0.943649888
vn -0.961283028 -0.165080532 -0.220643014
vn -0.821363032 -0.275783807 0.499305606
vn -0.676314771 -0.354049146 0.645947039
vn -0.599134147 -0.249849766 0.760666430
vn 0.064871065 -0.051745087 0.996551156
vn 0.869051337 -0.053291041 0.491843313
vn 0.990014911 -0.089821376 -0.108639508
vn 0.801867902 -0.204340100 -0.561473966
vn 0.577985883 -0.105383679 -0.809213579
vn 0.488630235 -0.313817948 -0.814099967
vn -0.168235853 -0.608806729 -0.775274813
vn -0.678914368 -0.713944435 -0.171343595
vn -0.568457961 -0.717488229 0.402574450
vn -0.548842251 -0.669978738 0.499900639
vn -0.553195953 -0.629122853 0.546057403
vn -0.109983809 -0.706510425 0.699104130
vn 0.721471250 -0.649254680 0.240723029
vn 0.826852202 -0.501516223 -0.254552394
vn 0.684249461 -0.580430567 -0.441478223
vn 0.393046319 -0.432522953 -0.811442256
vn 0.047277085 -0.977210879 -0.206938997
# 46 vertex normals

vt 0.000000000 1.000000000 0.000000000
vt 0.000000000 0.818181813 0.000000000
vt 0.090909094 0.818181813 0.000000000
vt 0.090909094 1.000000000 0.000000000
vt 0.181818187 0.818181813 0.000000000
vt 0.181818187 1.000000000 0.000000000
vt 0.272727281 0.818181813 0.000000000
vt 0.272727281 1.000000000 0.000000000
vt 0.363636374 0.818181813 0.000000000
vt 0.363636374 1.000000000 0.000000000
vt 0.454545468 0.818181813 0.000000000
vt 0.454545468 1.000000000 0.000000000
vt 0.545454562 0.818181813 0.000000000
vt 0.545454562 1.000000000 0.000000000
vt 0.636363626 0.818181813 0.000000000
vt 0.636363626 1.000000000 0.000000000
vt 0.727272749 0.818181813 0.000000000
vt 0.727272749 1.000000000 0.000000000
vt 0.818181813 0.818181813 0.000000000
vt 0.818181813 1.000000000 0.000000000
vt 0.909090877 0.818181813 0.000000000
vt 0.909090877 1.000000000 0.000000000
vt 0.999999940 0.818181813 0.000000000
vt 0.000000000 0.636363626 0.000000000
vt 0.090909094 0.636363626 0.000000000
vt 0.181818187 0.636363626 0.000000000
vt 0.272727281 0.636363626 0.000000000
vt 0.363636374 0.636363626 0.000000000
vt 0.454545468 0.636363626 0.000000000
vt 0.545454562 0.636363626 0.000000000
vt 0.636363626 0.636363626 0.000000000
vt 0.727272749 0.636363626 0.000000000
vt 0.818181813 0.636363626 0.000000000
vt 0.909090877 0.636363626 0.000000000
vt 0.999999940 0.636363626 0.000000000
vt 0.000000000 0.454545438 0.000000000
vt 0.090909094 0.454545438 0.000000000
vt 0.181818187 0.454545438 0.000000000
vt 0.272727281 0.454545438 0.000000000
vt 0.363636374 0.454545438 0.000000000
vt 0.454545468 0.454545438 0.000000000
vt 0.545454562 0.454545438 0.000000000
vt 0.636363626 0.454545438 0.000000000
vt 0.727272749 0.454545438 0.000000000
vt 0.818181813 0.454545438 0.000000000
vt 0.909090877 0.454545438 0.000000000
vt 0.999999940 0.454545438 0.000000000
vt 0.000000000 0.272727251 0.000000000
vt 0.090909094 0.272727251 0.000000000
vt 0.181818187 0.272727251 0.000000000
vt 0.272727281 0.272727251 0.000000000
vt 0.363636374 0.272727251 0.000000000
vt 0.454545468 0.272727251 0.000000000
vt 0.545454562 0.272727251 0.000000000
vt 0.636363626 0.272727251 0.000000000
vt 0.727272749 0.272727251 0.000000000
vt 0.818181813 0.272727251 0.000000000
vt 0.909090877 0.272727251 0.000000000
vt 0.999999940 0.272727251 0.000000000
vt 0.000000000 0.090909064 0.000000000
vt 0.090909094 0.090909064 0.000000000
vt 0.181818187 0.090909064 0.000000000
vt 0.272727281 0.090909064 0.000000000
vt 0.363636374 0.090909064 0.000000000
vt 0.454545468 0.090909064 0.000000000
vt 0.545454562 0.090909064 0.000000000
vt 0.636363626 0.090909064 0.000000000
vt 0.727272749 0.090909064 0.000000000
vt 0.818181813 0.090909064 0.000000000
vt 0.909090877 0.090909064 0.000000000
# 70 texture coords

g Sphere01
f 1/1/1 2/2/2 3/3/3 
f 1/4/1 3/3/3 4/5/4 
f 1/6/1 4/5/4 5/7/5 
f 1/8/1 5/7/5 6/9/6 
f 1/10/1 6/9/6 7/11/7 
f 1/12/1 7/11/7 8/13/8 
f 1/14/1 8/13/8 9/15/9 
f 1/16/1 9/15/9 10/17/10 
f 1/18/1 10/17/10 11/19/11 
f 1/20/1 11/19/11 12/21/12 
f 1/22/1 12/21/12 2/23/2 
f 2/2/2 13/24/13 14/25/14 
f 2/2/2 14/25/14 3/3/3 
f 3/3/3 14/25/14 15/26/15 
f 3/3/3 15/26/15 4/5/4 
f 4/5/4 15/26/15 16/27/16 
f 4/5/4 16/27/16 5/7/5 
f 5/7/5 16/27/16 17/28/17 
f 5/7/5 17/28/17 6/9/6 
f 6/9/6 17/28/17 18/29/18 
f 6/9/6 18/29/18 7/11/7 
f 7/11/7 18/29/18 19/30/19 
f 7/11/7 19/30/19 8/13/8 
f 8/13/8 19/30/19 20/31/20 
f 8/13/8 20/31/20 9/15/9 
f 9/15/9 20/31/20 21/32/21 
f 9/15/9 21/32/21 10/17/10 
f 10/17/10 21/32/21 22/33/22 
f 10/17/10 22/33/22 11/19/11 
f 11/19/11 22/33/22 23/34/23 
f 11/19/11 23/34/23 12/21/12 
f 12/21/12 23/34/23 13/35/13 
f 12/21/12 13/35/13 2/23/2 
f 13/24/13 24/36/24 25/37/25 
f 13/24/13 25/37/25 14/25/14 
f 14/25/14 25/37/25 26/38/26 
f 14/25/14 26/38/26 15/26/15 
f 15/26/15 26/38/26 27/39/27 
f 15/26/15 27/39/27 16/27/16 
f 16/27/16 27/39/27 28/40/28 
f 16/27/16 28/40/28 17/28/17 
f 17/28/17 28/40/28 29/41/29 
f 17/28/17 29/41/29 18/29/18 
f 18/29/18 29/41/29 30/42/30 
f 18/29/18 30/42/30 19/30/19 
f 19/30/19 30/42/30 31/43/31 
f 19/30/19 31/43/31 20/31/20 
f 20/31/20 31/43/31 32/44/32 
f 20/31/20 32/44/32 21/32/21 
f 21/32/21 32/44/32 33/45/33 
f 21/32/21 33/45/33 22/33/22 
f 22/33/22 33/45/33 34/46/34 
f 22/33/22 34/46/34 23/34/23 
f 23/34/23 34/46/34 24/47/24 
f 23/34/23 24/47/24 13/35/13 
f 24/36/24 35/48/35 36/49/36 
f 24/36/24 36/49/36 25/37/25 
f 25/37/25 36/49/36 37/50/37 
f 25/37/25 37/50/37 26/38/26 
f 26/38/26 37/50/37 38/51/38 
f 26/38/26 38/51/38 27/39/27 
f 27/39/27 38/51/38 39/52/39 
f 27/39/27 39/52/39 28/40/28 
f 28/40/28 39/52/39 40/53/40 
f 28/40/28 40/53/40 29/41/29 
f 29/41/29 40/53/40 41/54/41 
f 29/41/29 41/54/41 30/42/30 
f 30/42/30 41/54/41 42/55/42 
f 30/42/30 42/55/42 31/43/31 
f 31/43/31 42/55/42 43/56/43 
f 31/43/31 43/56/43 32/44/32 
f 32/44/32 43/56/43 44/57/44 
f 32/44/32 44/57/44 33/45/33 
f 33/45/33 44/57/44 45/58/45 
f 33/45/33 45/58/45 34/46/34 
f 34/46/34 45/58/45 35/59/35 
f 34/46/34 35/59/35 24/47/24 
f 46/60/46 36/49/36 35/48/35 
f 46/61/46 37/50/37 36/49/36 
f 46/62/46 38/51/38 37/50/37 
f 46/63/46 39/52/39 38/51/38 
f 46/64/46 40/53/40 39/52/39 
f 46/65/46 41/54/41 40/53/40 
f 46/66/46 42/55/42 41/54/41 
f 46/67/46 43/56/43 42/55/42 
f 46/68/46 44/57/44 43/56/43 
f 46/69/46 45/58/45 44/57/44 
f 46/70/46 35/59/35 45/58/45 
# 88 faces

